<svg width="1472" height="825" viewBox="0 0 1472 825" fill="none" xmlns="http://www.w3.org/2000/svg">
<g filter="url(#filter0_f_935_6258)">
<path d="M587.132 323.24C614.341 325.01 626.171 335.044 631.495 357.472C631.495 391.705 664.028 443.053 696.561 451.316C729.094 459.579 780.555 439.512 823.144 458.399C865.733 477.286 920.743 388.163 940.855 357.472C960.966 326.781 1019.53 301.402 971.613 280.744C923.701 260.087 891.168 270.711 859.226 250.053C827.285 229.396 763.402 267.17 756.303 250.053C749.205 232.937 730.869 250.053 701.885 250.053C672.901 250.053 686.505 142.634 648.649 140.864C610.792 139.093 564.654 70.6284 510.235 87.7446C455.816 104.861 458.774 123.748 468.83 154.439C478.885 185.13 498.405 195.163 510.235 217.592C522.066 240.02 523.84 229.396 523.84 250.053C523.84 270.711 549.275 265.399 564.654 280.744C580.034 296.09 559.922 321.469 587.132 323.24Z" fill="black"/>
</g>
<g filter="url(#filter1_f_935_6258)">
<path d="M1059.33 91.1921C1074.66 89.4225 1044.01 43.4109 1086.45 41.6412C1174.86 -1.16771 1227.9 60.5177 1210.81 91.1921C1193.72 121.867 1200.79 125.406 1185.47 184.985C1170.14 244.564 1197.25 241.025 1134.19 256.362C1071.12 271.699 1025.15 238.075 998.036 164.339C970.923 90.6022 1015.13 159.62 998.036 108.299C980.943 56.9784 1044.01 92.9618 1059.33 91.1921Z" fill="#010101"/>
</g>
<g filter="url(#filter2_f_935_6258)">
<path d="M402.876 282.107C358.687 252.972 336.297 257.729 263.237 282.107C251.453 286.006 263.237 309.457 263.237 380.212C263.237 450.967 426.444 376.645 465.92 352.267C505.396 327.889 447.065 311.241 402.876 282.107Z" fill="#010101"/>
</g>
<g filter="url(#filter3_f_935_6258)">
<path d="M107.851 82.5633C213.617 50.0372 283.93 130.465 215.39 171.271C146.849 212.076 -98.3617 128.691 107.851 82.5633Z" fill="#010101"/>
<path d="M1096.37 468.737C1138.92 417.287 1151.33 419.061 1276 420.835C1689.61 409.007 1226.37 776.257 1127.1 779.805C1027.83 783.354 938.022 737.226 770.215 735.452C602.409 733.677 708.765 622.497 797.395 636.099C886.026 649.701 908.479 564.542 990.609 532.015C1072.74 499.489 1053.83 520.188 1096.37 468.737Z" fill="#010101"/>
</g>
<g filter="url(#filter4_f_935_6258)">
<path d="M120.513 609.318C60.7133 638.256 164.918 638.256 164.918 757.551C164.918 834.325 291.622 778.221 346.093 778.221C400.564 778.221 344.317 701.447 317.082 680.777C289.846 660.107 245.441 655.383 238.336 590.42C231.231 525.457 180.312 580.38 120.513 609.318Z" fill="#010101"/>
</g>
<path d="M647.876 580.047H646.641" stroke="#010101" stroke-linecap="round"/>
<path d="M647.876 580.047H646.641" stroke="black" stroke-opacity="0.2" stroke-linecap="round"/>
<path d="M537.933 573.871H536.698" stroke="#010101" stroke-linecap="round"/>
<path d="M537.933 573.871H536.698" stroke="black" stroke-opacity="0.2" stroke-linecap="round"/>
<path d="M427.99 455.28H426.754" stroke="#010101" stroke-linecap="round"/>
<path d="M427.99 455.28H426.754" stroke="black" stroke-opacity="0.2" stroke-linecap="round"/>
<path d="M341.518 444.163V442.927" stroke="#010101" stroke-linecap="round"/>
<path d="M341.518 444.163V442.927" stroke="black" stroke-opacity="0.2" stroke-linecap="round"/>
<path d="M896.174 134.098H897.41" stroke="#010101" stroke-linecap="round"/>
<path d="M896.174 134.098H897.41" stroke="black" stroke-opacity="0.2" stroke-linecap="round"/>
<path d="M1022.18 223.041V224.276" stroke="#010101" stroke-linecap="round"/>
<path d="M1022.18 223.041V224.276" stroke="black" stroke-opacity="0.2" stroke-linecap="round"/>
<path d="M1160.53 262.571V263.806" stroke="#010101" stroke-linecap="round"/>
<path d="M1160.53 262.571V263.806" stroke="black" stroke-opacity="0.2" stroke-linecap="round"/>
<path d="M1154.36 315.689V316.925" stroke="#010101" stroke-linecap="round"/>
<path d="M1154.36 315.689V316.925" stroke="black" stroke-opacity="0.2" stroke-linecap="round"/>
<path d="M1373.01 315.689H1374.24" stroke="#010101" stroke-linecap="round"/>
<path d="M1373.01 315.689H1374.24" stroke="black" stroke-opacity="0.2" stroke-linecap="round"/>
<path d="M1256.89 183.511V182.275" stroke="#010101" stroke-linecap="round"/>
<path d="M1256.89 183.511V182.275" stroke="black" stroke-opacity="0.2" stroke-linecap="round"/>
<path d="M1239.59 313.219V314.454" stroke="#010101" stroke-linecap="round"/>
<path d="M1239.59 313.219V314.454" stroke="black" stroke-opacity="0.2" stroke-linecap="round"/>
<path d="M717.054 694.932H715.818" stroke="#010101" stroke-linecap="round"/>
<path d="M717.054 694.932H715.818" stroke="black" stroke-opacity="0.2" stroke-linecap="round"/>
<path d="M461.343 786.345V787.58" stroke="#010101" stroke-linecap="round"/>
<path d="M461.343 786.345V787.58" stroke="black" stroke-opacity="0.2" stroke-linecap="round"/>
<path d="M126.573 780.168H125.337" stroke="#010101" stroke-linecap="round"/>
<path d="M126.573 780.168H125.337" stroke="black" stroke-opacity="0.2" stroke-linecap="round"/>
<path d="M31.4533 659.107H30.218" stroke="#010101" stroke-linecap="round"/>
<path d="M31.4533 659.107H30.218" stroke="black" stroke-opacity="0.2" stroke-linecap="round"/>
<path d="M189.574 515.811L190.809 514.575" stroke="#010101" stroke-linecap="round"/>
<path d="M189.574 515.811L190.809 514.575" stroke="black" stroke-opacity="0.2" stroke-linecap="round"/>
<path d="M153.75 426.868V425.633" stroke="#010101" stroke-linecap="round"/>
<path d="M153.75 426.868V425.633" stroke="black" stroke-opacity="0.2" stroke-linecap="round"/>
<path d="M206.868 339.161V340.396" stroke="#010101" stroke-linecap="round"/>
<path d="M206.868 339.161V340.396" stroke="black" stroke-opacity="0.2" stroke-linecap="round"/>
<path d="M148.808 293.454H147.573" stroke="#010101" stroke-linecap="round"/>
<path d="M148.808 293.454H147.573" stroke="black" stroke-opacity="0.2" stroke-linecap="round"/>
<path d="M343.988 246.512H345.224" stroke="#010101" stroke-linecap="round"/>
<path d="M343.988 246.512H345.224" stroke="black" stroke-opacity="0.2" stroke-linecap="round"/>
<path d="M362.518 152.628H361.283" stroke="#010101" stroke-linecap="round"/>
<path d="M362.518 152.628H361.283" stroke="black" stroke-opacity="0.2" stroke-linecap="round"/>
<path d="M345.224 136.569V135.333" stroke="#010101" stroke-linecap="round"/>
<path d="M345.224 136.569V135.333" stroke="black" stroke-opacity="0.2" stroke-linecap="round"/>
<path d="M385.989 93.3325L388.46 92.0972" stroke="#010101" stroke-linecap="round"/>
<path d="M385.989 93.3325L388.46 92.0972" stroke="black" stroke-opacity="0.2" stroke-linecap="round"/>
<path d="M420.578 79.7441H421.813" stroke="#010101" stroke-linecap="round"/>
<path d="M420.578 79.7441H421.813" stroke="black" stroke-opacity="0.2" stroke-linecap="round"/>
<path d="M767.702 79.7441V80.9795" stroke="#010101" stroke-linecap="round"/>
<path d="M767.702 79.7441V80.9795" stroke="black" stroke-opacity="0.2" stroke-linecap="round"/>
<path d="M762.76 14.2724V13.0371" stroke="#010101" stroke-linecap="round"/>
<path d="M762.76 14.2724V13.0371" stroke="black" stroke-opacity="0.2" stroke-linecap="round"/>
<path d="M792.408 13.0371H793.643" stroke="#010101" stroke-linecap="round"/>
<path d="M792.408 13.0371H793.643" stroke="black" stroke-opacity="0.2" stroke-linecap="round"/>
<path d="M909.763 103.215L910.998 104.451" stroke="#010101" stroke-linecap="round"/>
<path d="M909.763 103.215L910.998 104.451" stroke="black" stroke-opacity="0.2" stroke-linecap="round"/>
<path d="M1382.89 290.983L1384.12 292.219" stroke="#010101" stroke-linecap="round"/>
<path d="M1382.89 290.983L1384.12 292.219" stroke="black" stroke-opacity="0.2" stroke-linecap="round"/>
<path d="M1284.06 126.686H1282.83" stroke="#010101" stroke-linecap="round"/>
<path d="M1284.06 126.686H1282.83" stroke="black" stroke-opacity="0.2" stroke-linecap="round"/>
<path d="M598.463 727.05L597.228 725.814" stroke="#010101" stroke-linecap="round"/>
<path d="M598.463 727.05L597.228 725.814" stroke="black" stroke-opacity="0.2" stroke-linecap="round"/>
<path d="M536.697 660.343H535.462" stroke="#010101" stroke-linecap="round"/>
<path d="M536.697 660.343H535.462" stroke="black" stroke-opacity="0.2" stroke-linecap="round"/>
<path d="M430.46 521.987H429.225" stroke="#010101" stroke-linecap="round"/>
<path d="M430.46 521.987H429.225" stroke="black" stroke-opacity="0.2" stroke-linecap="round"/>
<path d="M285.928 185.981V184.746" stroke="#010101" stroke-linecap="round"/>
<path d="M285.928 185.981V184.746" stroke="black" stroke-opacity="0.2" stroke-linecap="round"/>
<path d="M311.87 13.0371H310.635" stroke="#010101" stroke-linecap="round"/>
<path d="M311.87 13.0371H310.635" stroke="black" stroke-opacity="0.2" stroke-linecap="round"/>
<path d="M1271.71 400.926H1270.48" stroke="#010101" stroke-linecap="round"/>
<path d="M1271.71 400.926H1270.48" stroke="black" stroke-opacity="0.2" stroke-linecap="round"/>
<path d="M1155.59 399.691H1154.36" stroke="#010101" stroke-linecap="round"/>
<path d="M1155.59 399.691H1154.36" stroke="black" stroke-opacity="0.2" stroke-linecap="round"/>
<path d="M1054.29 496.045H1055.53" stroke="#010101" stroke-linecap="round"/>
<path d="M1054.29 496.045H1055.53" stroke="black" stroke-opacity="0.2" stroke-linecap="round"/>
<defs>
<filter id="filter0_f_935_6258" x="439.1" y="61.1" width="574.8" height="423.8" filterUnits="userSpaceOnUse" color-interpolation-filters="sRGB">
<feFlood flood-opacity="0" result="BackgroundImageFix"/>
<feBlend mode="normal" in="SourceGraphic" in2="BackgroundImageFix" result="shape"/>
<feGaussianBlur stdDeviation="11.95" result="effect1_foregroundBlur_935_6258"/>
</filter>
<filter id="filter1_f_935_6258" x="962.2" y="0.200001" width="278.6" height="286.6" filterUnits="userSpaceOnUse" color-interpolation-filters="sRGB">
<feFlood flood-opacity="0" result="BackgroundImageFix"/>
<feBlend mode="normal" in="SourceGraphic" in2="BackgroundImageFix" result="shape"/>
<feGaussianBlur stdDeviation="13.4" result="effect1_foregroundBlur_935_6258"/>
</filter>
<filter id="filter2_f_935_6258" x="231.2" y="235.2" width="274.6" height="201.6" filterUnits="userSpaceOnUse" color-interpolation-filters="sRGB">
<feFlood flood-opacity="0" result="BackgroundImageFix"/>
<feBlend mode="normal" in="SourceGraphic" in2="BackgroundImageFix" result="shape"/>
<feGaussianBlur stdDeviation="13.4" result="effect1_foregroundBlur_935_6258"/>
</filter>
<filter id="filter3_f_935_6258" x="0.200001" y="48.2" width="1471.6" height="758.6" filterUnits="userSpaceOnUse" color-interpolation-filters="sRGB">
<feFlood flood-opacity="0" result="BackgroundImageFix"/>
<feBlend mode="normal" in="SourceGraphic" in2="BackgroundImageFix" result="shape"/>
<feGaussianBlur stdDeviation="13.4" result="effect1_foregroundBlur_935_6258"/>
</filter>
<filter id="filter4_f_935_6258" x="75.2" y="533.2" width="320.6" height="291.6" filterUnits="userSpaceOnUse" color-interpolation-filters="sRGB">
<feFlood flood-opacity="0" result="BackgroundImageFix"/>
<feBlend mode="normal" in="SourceGraphic" in2="BackgroundImageFix" result="shape"/>
<feGaussianBlur stdDeviation="13.4" result="effect1_foregroundBlur_935_6258"/>
</filter>
</defs>
</svg>
